HIERARCHY
ROOT Hips
{
	OFFSET 0.000000 0.000000 0.000000
	CHANNELS 6 Xposition Yposition Zposition Zrotation Yrotation Xrotation 
	JOINT LHipJoint
	{
		OFFSET 0.000000 0.000000 0.000000
		CHANNELS 3 Zrotation Yrotation Xrotation
		JOINT LeftUpLeg
		{
			OFFSET 1.363060 -1.794630 0.839290
			CHANNELS 3 Zrotation Yrotation Xrotation
			JOINT LeftLeg
			{
				OFFSET 2.448110 -6.726130 0.000000
				CHANNELS 3 Zrotation Yrotation Xrotation
				JOINT LeftFoot
				{
					OFFSET 2.562200 -7.039590 0.000000
					CHANNELS 3 Zrotation Yrotation Xrotation
					JOINT LeftToeBase
					{
						OFFSET 0.157640 -0.433110 2.322550
						CHANNELS 3 Zrotation Yrotation Xrotation
						End Site
						{
							OFFSET 0.000000 0.000000 0.000000
						}
					}
				}
			}
		}
	}
	JOINT RHipJoint
	{
		OFFSET 0.000000 0.000000 0.000000
		CHANNELS 3 Zrotation Yrotation Xrotation
		JOINT RightUpLeg
		{
			OFFSET -1.305520 -1.794630 0.839290
			CHANNELS 3 Zrotation Yrotation Xrotation
			JOINT RightLeg
			{
				OFFSET -2.542530 -6.985550 0.000000
				CHANNELS 3 Zrotation Yrotation Xrotation
				JOINT RightFoot
				{
					OFFSET -2.568260 -7.056230 0.000000
					CHANNELS 3 Zrotation Yrotation Xrotation
					JOINT RightToeBase
					{
						OFFSET -0.164730 -0.452590 2.363150
						CHANNELS 3 Zrotation Yrotation Xrotation
						End Site
						{
							OFFSET 0.000000 0.000000 0.000000
						}
					}
				}
			}
		}
	}
	JOINT LowerBack
	{
		OFFSET 0.000000 0.000000 0.000000
		CHANNELS 3 Zrotation Yrotation Xrotation
		JOINT Spine
		{
			OFFSET 0.028270 2.035590 -0.193380
			CHANNELS 3 Zrotation Yrotation Xrotation
			JOINT Spine1
			{
				OFFSET 0.056720 2.048850 -0.042750
				CHANNELS 3 Zrotation Yrotation Xrotation
				JOINT Neck
				{
					OFFSET 0.000000 0.000000 0.000000
					CHANNELS 3 Zrotation Yrotation Xrotation
					JOINT Neck1
					{
						OFFSET -0.054170 1.746240 0.172020
						CHANNELS 3 Zrotation Yrotation Xrotation
						JOINT Head
						{
							OFFSET 0.104070 1.761360 -0.123970
							CHANNELS 3 Zrotation Yrotation Xrotation
							End Site
							{
								OFFSET 0.000000 0.000000 0.000000
							}
						}
					}
				}
				JOINT LeftShoulder
				{
					OFFSET 0.000000 0.000000 0.000000
					CHANNELS 3 Zrotation Yrotation Xrotation
					JOINT LeftArm
					{
						OFFSET 3.362410 1.200890 -0.311210
						CHANNELS 3 Zrotation Yrotation Xrotation
						JOINT LeftForeArm
						{
							OFFSET 4.983000 -0.000000 -0.000000
							CHANNELS 3 Zrotation Yrotation Xrotation
							JOINT LeftHand
							{
								OFFSET 3.483560 -0.000000 -0.000000
								CHANNELS 3 Zrotation Yrotation Xrotation
								JOINT LeftFingerBase
								{
									OFFSET 0.000000 0.000000 0.000000
									CHANNELS 3 Zrotation Yrotation Xrotation
									JOINT LeftHandIndex1
									{
										OFFSET 0.715260 -0.000000 -0.000000
										CHANNELS 3 Zrotation Yrotation Xrotation
										End Site
										{
											OFFSET 0.000000 0.000000 0.000000
										}
									}
								}
								JOINT LThumb
								{
									OFFSET 0.000000 0.000000 0.000000
									CHANNELS 3 Zrotation Yrotation Xrotation
									End Site
									{
										OFFSET 0.000000 0.000000 0.000000
									}
								}
							}
						}
					}
				}
				JOINT RightShoulder
				{
					OFFSET 0.000000 0.000000 0.000000
					CHANNELS 3 Zrotation Yrotation Xrotation
					JOINT RightArm
					{
						OFFSET -3.136600 1.374050 -0.404650
						CHANNELS 3 Zrotation Yrotation Xrotation
						JOINT RightForeArm
						{
							OFFSET -5.241900 -0.000000 -0.000000
							CHANNELS 3 Zrotation Yrotation Xrotation
							JOINT RightHand
							{
								OFFSET -3.444170 -0.000000 -0.000000
								CHANNELS 3 Zrotation Yrotation Xrotation
								JOINT RightFingerBase
								{
									OFFSET 0.000000 0.000000 0.000000
									CHANNELS 3 Zrotation Yrotation Xrotation
									JOINT RightHandIndex1
									{
										OFFSET -0.622530 -0.000000 -0.000000
										CHANNELS 3 Zrotation Yrotation Xrotation
										End Site
										{
											OFFSET 0.000000 0.000000 0.000000
										}
									}
								}
								JOINT RThumb
								{
									OFFSET 0.000000 0.000000 0.000000
									CHANNELS 3 Zrotation Yrotation Xrotation
									End Site
									{
										OFFSET 0.000000 0.000000 0.000000
									}
								}
							}
						}
					}
				}
			}
		}
	}
}
MOTION
Frames: 9
Frame Time: 0.033333
-1.964020 16.363984 24.412325 -0.018172 12.098838 12.270993 -14.693894 27.089925 -12.539700 -32.010368 -30.698725 -32.871476 18.307604 0.416023 52.627520 -3.213353 -1.719060 -9.149219 0.000000 0.000000 0.000000 14.382874 -20.230509 10.857901 0.754552 7.016086 -18.701032 12.961984 -25.970881 38.324452 20.675879 -8.783284 -33.425555 0.000000 0.000000 0.000000 0.953713 -1.275569 19.677925 6.325426 1.002187 -0.739020 -0.041443 1.307839 7.203326 0.833653 -1.623845 -8.336340 -1.371921 -0.408959 4.013641 0.000000 0.000000 0.000000 13.278913 9.905365 14.617961 -74.145229 8.009292 -7.471583 -56.250757 -48.790311 -1.550669 3.776072 -3.316565 -0.782013 3.846876 -3.402977 -0.000000 0.000000 0.000000 0.000000 0.000000 0.000000 0.000000 -13.752663 -10.480622 6.040661 78.022762 14.954250 -7.406006 159.437243 74.542067 -179.919128 -2.304362 6.032575 0.039617 -2.306803 6.032912 0.000000 0.000000 0.000000 0.000000 0.000000 0.000000 0.000000 
-1.956869 16.406498 24.591645 -0.147424 11.534655 12.342823 -15.882388 25.027754 -13.309120 -29.043671 -30.367721 -34.059370 18.879219 0.925910 55.013757 -3.935354 -0.623619 -9.594512 0.000000 0.000000 0.000000 15.159477 -19.558008 11.068013 -0.093455 6.986692 -18.698097 12.511360 -25.994117 38.369847 21.729028 -10.325056 -31.540065 0.000000 0.000000 0.000000 1.132232 -0.666699 19.528430 5.561799 1.383583 -1.935475 -0.400638 1.515966 7.649927 0.627521 -1.500825 -8.669458 -0.364729 -0.392951 4.780674 0.000000 0.000000 0.000000 13.219425 9.683676 14.557950 -74.183025 7.393991 -6.823306 -55.369044 -49.911176 -1.641179 4.806050 -3.249955 -0.827448 4.879144 -3.340831 -0.000000 0.000000 0.000000 0.000000 0.000000 0.000000 0.000000 -13.742863 -9.998472 6.350553 78.638351 13.967840 -5.396762 161.295353 76.552871 -179.976189 -2.710423 6.573072 0.010485 -2.721867 6.570693 0.000000 0.000000 0.000000 0.000000 0.000000 0.000000 0.000000 
-1.937073 16.441822 24.761717 -0.353809 10.693475 12.468292 -17.119482 22.769714 -14.093678 -25.612814 -29.716237 -35.458976 19.202964 1.712451 57.380978 -4.671558 0.497558 -10.175450 0.000000 0.000000 0.000000 15.694717 -18.908797 11.162001 -0.653276 7.130332 -18.591997 11.895981 -25.876733 38.594990 22.771572 -11.820475 -29.705764 0.000000 0.000000 0.000000 1.510646 -0.025285 19.491016 4.748247 1.757509 -2.846788 -0.837193 1.770933 7.752448 0.392246 -1.399963 -8.857591 0.465257 -0.389495 5.392974 0.000000 0.000000 0.000000 12.935766 9.728104 14.226751 -73.892476 6.591202 -6.218911 -55.015535 -50.254269 -1.683764 5.957968 -3.180317 -0.848489 6.029004 -3.271115 -0.000000 0.000000 0.000000 0.000000 0.000000 0.000000 0.000000 -13.557479 -9.510155 6.681627 79.522140 12.962134 -3.507566 163.340565 79.059663 -179.954636 -2.991373 7.410575 0.021237 -3.004332 7.407428 0.000000 0.000000 0.000000 0.000000 0.000000 0.000000 0.000000 
-1.911711 16.468411 24.924649 -0.561344 9.650794 12.689169 -18.247651 20.382940 -14.814779 -21.822672 -28.736481 -37.025188 19.018100 2.928022 59.690319 -5.398141 1.618920 -10.980408 0.000000 0.000000 0.000000 16.162816 -18.281772 11.215196 -1.155398 7.397659 -18.568859 11.136791 -25.655745 38.983895 23.782057 -13.184208 -28.064703 0.000000 0.000000 0.000000 1.852032 0.623509 19.539276 3.972639 2.123533 -3.540120 -1.336954 2.055104 7.744517 0.156232 -1.338751 -8.999512 1.064489 -0.397106 5.871098 0.000000 0.000000 0.000000 12.521309 9.921527 13.753590 -73.414097 5.778362 -5.506328 -55.008833 -50.764598 -1.616048 6.940924 -2.935575 -0.813896 7.004153 -3.019399 -0.000000 0.000000 0.000000 0.000000 0.000000 0.000000 0.000000 -13.305507 -8.957572 7.084715 80.781728 12.109575 -2.075508 165.607925 81.944596 179.991701 -3.506968 8.261358 -0.006440 -3.531672 8.254470 0.000000 0.000000 0.000000 0.000000 0.000000 0.000000 0.000000 
-1.883839 16.483542 25.084057 -0.696971 8.665511 12.981334 -19.129723 18.295352 -15.409863 -18.500319 -27.740044 -38.328530 18.583161 4.219934 61.776186 -6.085593 2.645963 -11.805484 0.000000 0.000000 0.000000 16.592853 -17.810028 11.312162 -1.651456 7.766346 -18.746564 10.276241 -25.389819 39.541037 24.852773 -14.446090 -26.705080 0.000000 0.000000 0.000000 2.077174 1.208991 19.642400 3.281724 2.417688 -3.943419 -1.825200 2.315031 7.664204 -0.077467 -1.302261 -9.121601 1.451269 -0.407509 6.211370 0.000000 0.000000 0.000000 11.980055 10.096888 13.214572 -72.980124 4.981496 -4.707696 -55.173640 -51.791863 -1.494602 7.772490 -2.658884 -0.752133 7.826899 -2.730800 -0.000000 0.000000 0.000000 0.000000 0.000000 0.000000 0.000000 -12.927527 -8.370192 7.483819 82.197443 11.350956 -1.023591 168.181771 85.424656 179.755632 -4.722033 9.190063 -0.127198 -4.783059 9.171280 0.000000 0.000000 0.000000 0.000000 0.000000 0.000000 0.000000 
-1.860288 16.491342 25.239028 -0.703094 7.966690 13.328737 -19.744486 16.599993 -15.935534 -16.028110 -26.931523 -39.162677 18.090425 5.370277 63.578212 -6.725467 3.591426 -12.440501 0.000000 0.000000 0.000000 17.112246 -17.350508 11.389605 -2.304742 8.072122 -19.099989 9.500922 -25.247721 40.212328 26.189893 -15.846868 -25.586241 0.000000 0.000000 0.000000 2.110476 1.686363 19.899026 2.757471 2.611533 -4.197670 -2.210822 2.533182 7.659452 -0.469193 -1.260271 -9.438098 1.798672 -0.416498 6.504935 0.000000 0.000000 0.000000 11.677057 10.004980 12.804837 -73.056674 4.095706 -3.611740 -56.084739 -53.835607 -1.420934 8.371154 -2.597214 -0.714459 8.422050 -2.658227 -0.000000 0.000000 0.000000 0.000000 0.000000 0.000000 0.000000 -12.522878 -7.917984 7.855525 83.715958 10.759702 -0.533060 170.703478 89.341655 179.397630 -6.602544 10.333610 -0.310728 -6.720113 10.292708 0.000000 0.000000 0.000000 0.000000 0.000000 0.000000 0.000000 
-1.842150 16.493038 25.390387 -0.630423 7.548029 13.725337 -20.154219 15.305143 -16.413053 -14.359002 -26.380741 -39.612164 17.675232 6.258884 65.097817 -7.298762 4.395880 -12.951497 0.000000 0.000000 0.000000 17.695513 -16.879901 11.421746 -3.071940 8.317579 -19.589563 8.894031 -25.250194 40.996383 27.872156 -17.510605 -24.643804 0.000000 0.000000 0.000000 1.981712 2.040000 20.310179 2.415143 2.719180 -4.342437 -2.471153 2.702696 7.816875 -1.022182 -1.217223 -9.917331 2.159774 -0.425289 6.767776 0.000000 0.000000 0.000000 11.811108 9.695722 12.455518 -73.474395 3.163793 -2.222528 -57.478442 -56.374871 -1.214750 8.696127 -2.022085 -0.610311 8.735950 -2.070420 -0.000000 0.000000 0.000000 0.000000 0.000000 0.000000 0.000000 -12.261289 -7.631877 8.187108 85.393338 10.428751 -0.687585 -6.822485 86.034345 -0.877865 -8.426647 11.850821 -0.453685 -8.601029 11.782963 0.000000 0.000000 0.000000 0.000000 0.000000 0.000000 0.000000 
-1.827105 16.490246 25.534403 -0.501036 7.291679 14.140445 -20.337759 14.457649 -16.851704 -13.434625 -26.104917 -39.753102 17.272673 6.930547 66.350738 -7.846493 5.137940 -13.420051 0.000000 0.000000 0.000000 18.181763 -16.466129 11.403225 -3.805353 8.576089 -20.193075 8.391039 -25.345189 41.967639 29.846647 -19.482805 -23.758413 0.000000 0.000000 0.000000 1.768202 2.240135 20.858019 2.159680 2.729380 -4.539425 -2.638270 2.765009 8.295433 -1.729320 -1.250604 -10.676731 2.558773 -0.464543 7.277164 0.000000 0.000000 0.000000 12.454670 9.189982 12.059071 -74.048990 2.213981 -0.639229 -58.617012 -59.412755 -0.753491 9.166670 -0.352481 -0.378232 9.184535 -0.385420 -0.000000 0.000000 0.000000 0.000000 0.000000 0.000000 0.000000 -12.264685 -7.276158 8.612792 87.216364 10.336906 -1.498639 -4.736350 81.567269 -0.997176 -9.919425 13.590170 -0.518767 -10.142244 13.494146 0.000000 0.000000 0.000000 0.000000 0.000000 0.000000 0.000000 
-1.809697 16.486232 25.672843 -0.342670 7.054534 14.581050 -20.361976 14.023844 -17.218544 -13.009288 -26.083814 -39.795491 16.811284 7.469146 67.421213 -8.421772 5.921871 -13.871193 0.000000 0.000000 0.000000 18.491614 -16.251646 11.406982 -4.475168 8.926826 -20.996032 7.945151 -25.425862 43.105320 31.949990 -21.696927 -22.806318 0.000000 0.000000 0.000000 1.554536 2.367900 21.452775 1.893842 2.742707 -4.717918 -2.680798 2.790565 9.023891 -2.586309 -1.369983 -11.611372 2.910150 -0.510314 7.652023 0.000000 0.000000 0.000000 13.543547 8.516220 11.656679 -74.372679 1.364269 1.569754 -59.520565 -63.458157 -0.320973 9.943558 1.349365 -0.160741 9.949984 1.327223 -0.000000 0.000000 0.000000 0.000000 0.000000 0.000000 0.000000 -12.415288 -6.897700 8.965661 88.972697 10.381771 -2.550923 -2.679018 76.997068 -0.716882 -10.230457 15.530326 -0.380458 -10.455836 15.425599 0.000000 0.000000 0.000000 0.000000 0.000000 0.000000 0.000000 
